<svg width="31" height="40" viewBox="0 0 31 40" fill="none" xmlns="http://www.w3.org/2000/svg">
<path fill-rule="evenodd" clip-rule="evenodd" d="M15.3323 0.865112C23.5141 0.865112 30.7868 7.22875 30.7868 15.4106C30.7868 23.5924 19.8777 39.0469 15.3323 39.0469C11.6959 39.0469 0.786804 23.5924 0.786804 15.4106C0.786804 7.22875 7.15044 0.865112 15.3323 0.865112V0.865112Z" fill="#EF7F1A"/>
<path d="M15.3322 28.1378C21.8593 28.1378 27.1504 22.8466 27.1504 16.3196C27.1504 9.79264 21.8593 4.50146 15.3322 4.50146C8.80525 4.50146 3.51407 9.79264 3.51407 16.3196C3.51407 22.8466 8.80525 28.1378 15.3322 28.1378Z" fill="#FEFEFE"/>
<path fill-rule="evenodd" clip-rule="evenodd" d="M22.605 12.6833H17.1505L13.5141 9.95605L10.7868 11.7742V10.8651H8.96864V13.5924L6.24136 15.4106H8.96864V21.7742H22.605V15.4106H25.3323L22.605 12.6833ZM17.1505 15.4106H21.6959V20.8651H17.1505V15.4106ZM13.5141 11.7742L17.1505 14.5015H9.87773L13.5141 11.7742ZM10.7868 15.4106H16.2414V20.8651H10.7868V15.4106Z" fill="#EF7F1A"/>
<path fill-rule="evenodd" clip-rule="evenodd" d="M22.605 12.6833H17.1505L13.5141 9.95605L10.7868 11.7742V10.8651H8.96864V13.5924L6.24136 15.4106H22.605H25.3323L22.605 12.6833ZM13.5141 11.7742L17.1505 14.5015H9.87773L13.5141 11.7742Z" fill="#5B5B5B"/>
</svg>
