<svg width="23" height="22" viewBox="0 0 23 22" fill="none" xmlns="http://www.w3.org/2000/svg">
<path fill-rule="evenodd" clip-rule="evenodd" d="M1.2522 0.00366211C0.699912 0.00366211 0.252197 0.451377 0.252197 1.00366V20.8465C0.252197 21.3988 0.699912 21.8465 1.2522 21.8465H22.365C22.9173 21.8465 23.365 21.3988 23.365 20.8465V1.00366C23.365 0.451377 22.9173 0.00366211 22.365 0.00366211H1.2522ZM2.2522 19.8465V2.00366H21.365V19.8465H2.2522ZM9.87186 7.6709C9.87186 6.55743 10.7745 5.65479 11.888 5.65479C13.0014 5.65479 13.9041 6.55743 13.9041 7.6709C13.9041 8.78437 13.0014 9.68702 11.888 9.68702C10.7745 9.68702 9.87186 8.78437 9.87186 7.6709ZM11.888 3.65479C9.66992 3.65479 7.87186 5.45286 7.87186 7.6709C7.87186 9.88894 9.66992 11.687 11.888 11.687C14.106 11.687 15.9041 9.88894 15.9041 7.6709C15.9041 5.45286 14.106 3.65479 11.888 3.65479ZM8.0794 11.0083C8.60335 10.8337 9.16967 11.1169 9.34431 11.6408C9.38059 11.7496 9.53745 11.9797 10.0176 12.1965C10.4773 12.4041 11.123 12.5436 11.8812 12.5445C11.8857 12.5444 11.8902 12.5444 11.8947 12.5445C12.5618 12.5435 13.1654 12.4083 13.6081 12.2017C14.0733 11.9847 14.2352 11.754 14.2729 11.6408C14.4475 11.1169 15.0139 10.8337 15.5378 11.0083C16.0618 11.183 16.3449 11.7493 16.1703 12.2733C15.8905 13.1125 15.1793 13.6756 14.4539 14.0141C14.3444 14.0652 14.2316 14.1127 14.1159 14.1566L16.1952 15.9647C16.612 16.3271 16.656 16.9587 16.2936 17.3755C15.9312 17.7922 15.2996 17.8363 14.8829 17.4739L11.9055 14.8849L8.75385 17.7739C8.34673 18.1471 7.71416 18.1196 7.34097 17.7125C6.96778 17.3054 6.99528 16.6728 7.4024 16.2996L9.68238 14.2096C9.51344 14.1532 9.35045 14.0897 9.19446 14.0193C8.44438 13.6805 7.72815 13.1169 7.44695 12.2733C7.2723 11.7493 7.55546 11.183 8.0794 11.0083Z" fill="#2F2F51"/>
</svg>
