<svg width="24" height="22" viewBox="0 0 24 22" fill="none" xmlns="http://www.w3.org/2000/svg">
<path fill-rule="evenodd" clip-rule="evenodd" d="M1.85254 0.00366211C1.30025 0.00366211 0.852539 0.451377 0.852539 1.00366V20.8465C0.852539 21.3988 1.30025 21.8465 1.85254 21.8465H22.9654C23.5176 21.8465 23.9654 21.3988 23.9654 20.8465V1.00366C23.9654 0.451377 23.5176 0.00366211 22.9654 0.00366211H1.85254ZM2.85254 19.8465V2.00366H21.9654V19.8465H2.85254ZM10.6864 5.5857C10.3814 5.36899 9.98092 5.34067 9.64846 5.51228C9.316 5.6839 9.10715 6.02674 9.10715 6.40088V14.338C9.10715 14.699 9.30168 15.0319 9.61613 15.2092C9.93058 15.3864 10.3161 15.3804 10.6249 15.1935L16.6572 11.5424C16.9453 11.368 17.1263 11.0603 17.1387 10.7237C17.1511 10.3871 16.9932 10.0669 16.7186 9.87176L10.6864 5.5857ZM11.1071 12.5639V8.33813L14.3187 10.62L11.1071 12.5639Z" fill="#EF7F1A"/>
</svg>
