<svg width="24" height="22" viewBox="0 0 24 22" fill="none" xmlns="http://www.w3.org/2000/svg">
<path fill-rule="evenodd" clip-rule="evenodd" d="M0.846863 1.00366C0.846863 0.451377 1.29458 0.00366211 1.84686 0.00366211H22.9597C23.512 0.00366211 23.9597 0.451377 23.9597 1.00366V20.8465C23.9597 21.3988 23.512 21.8465 22.9597 21.8465H1.84686C1.29458 21.8465 0.846863 21.3988 0.846863 20.8465V1.00366ZM2.84686 2.00366V19.8465H21.9597V2.00366H2.84686ZM12.4827 7.55957C10.6678 7.55957 9.19659 9.03079 9.19659 10.8456C9.19659 12.6605 10.6678 14.1317 12.4827 14.1317C14.2975 14.1317 15.7687 12.6605 15.7687 10.8456C15.7687 9.03079 14.2975 7.55957 12.4827 7.55957ZM7.19659 10.8456C7.19659 7.92622 9.56324 5.55957 12.4827 5.55957C15.4021 5.55957 17.7687 7.92622 17.7687 10.8456C17.7687 13.765 15.4021 16.1317 12.4827 16.1317C9.56324 16.1317 7.19659 13.765 7.19659 10.8456ZM19.8324 4.81349C19.8324 4.92742 19.74 5.01978 19.6261 5.01978C19.5122 5.01978 19.4198 4.92742 19.4198 4.81349C19.4198 4.69956 19.5122 4.6072 19.6261 4.6072C19.74 4.6072 19.8324 4.69956 19.8324 4.81349ZM19.6261 3.01978C18.6354 3.01978 17.8324 3.82284 17.8324 4.81349C17.8324 5.80414 18.6354 6.60721 19.6261 6.60721C20.6167 6.60721 21.4198 5.80414 21.4198 4.81349C21.4198 3.82284 20.6167 3.01978 19.6261 3.01978Z" fill="#EF7F1A"/>
</svg>
