<svg>
    <symbol id="icon-1" width="25" height="22" viewBox="0 0 25 22" xmlns="http://www.w3.org/2000/svg">
        <path clip-rule="evenodd" d="M0.634949 0.00366211C0.082664 0.00366211 -0.365051 0.451377 -0.365051 1.00366V20.8465C-0.365051 21.3988 0.082664 21.8465 0.634949 21.8465H21.7478C22.3 21.8465 22.7478 21.3988 22.7478 20.8465V1.00366C22.7478 0.451377 22.3 0.00366211 21.7478 0.00366211H0.634949ZM1.63495 19.8465V2.00366H20.7478V19.8465H1.63495ZM7.59731 5.50055V14.5911H11.0636C11.6424 14.5911 12.1302 14.5415 12.527 14.4422C12.928 14.3389 13.2608 14.188 13.5254 13.9896C13.7899 13.7911 14.0111 13.51 14.1889 13.1463C14.3708 12.7783 14.4617 12.3815 14.4617 11.9557C14.4617 11.4265 14.3129 10.9677 14.0152 10.5791C13.7217 10.1905 13.3001 9.91559 12.7503 9.75436C13.1761 9.54353 13.4944 9.26656 13.7052 8.92344C13.916 8.58033 14.0214 8.21448 14.0214 7.82589C14.0214 7.40836 13.9016 7.00943 13.6618 6.62911C13.4262 6.24466 13.0975 5.96148 12.6758 5.77959C12.2583 5.59356 11.7023 5.50055 11.0078 5.50055H7.59731ZM10.766 9.3203H8.80028V6.57331H10.6171C11.2703 6.57331 11.7312 6.61671 11.9999 6.70352C12.2687 6.7862 12.4753 6.94329 12.62 7.17479C12.7647 7.40216 12.8371 7.66673 12.8371 7.96851C12.8371 8.28682 12.7585 8.55139 12.6014 8.76222C12.4485 8.97305 12.219 9.12394 11.9131 9.21489C11.6816 9.28516 11.2992 9.3203 10.766 9.3203ZM11.0636 13.5183H8.80028V10.3931H10.9024C11.4811 10.3931 11.9235 10.4447 12.2294 10.5481C12.5394 10.6473 12.7813 10.823 12.9549 11.0752C13.1285 11.3232 13.2153 11.6167 13.2153 11.9557C13.2153 12.2451 13.1554 12.5014 13.0355 12.7246C12.9156 12.9437 12.7627 13.1111 12.5766 13.2269C12.3906 13.3426 12.1591 13.4253 11.8821 13.4749C11.725 13.5038 11.4522 13.5183 11.0636 13.5183Z" />
    </symbol>
    <symbol id="icon-2" width="25" height="22" viewBox="0 0 25 22" xmlns="http://www.w3.org/2000/svg">
        <path clip-rule="evenodd" d="M1.76468 0.00366211C1.21239 0.00366211 0.764679 0.451377 0.764679 1.00366V20.8465C0.764679 21.3988 1.21239 21.8465 1.76468 21.8465H22.8775C23.4298 21.8465 23.8775 21.3988 23.8775 20.8465V1.00366C23.8775 0.451377 23.4298 0.00366211 22.8775 0.00366211H1.76468ZM2.76468 19.8465V2.00366H21.8775V19.8465H15.486V10.8335H17.6089V9.39772H15.486V8.39266C15.486 7.7363 15.6022 7.28846 15.8347 7.04916C16.0671 6.80986 16.4637 6.69021 17.0243 6.69021C17.3662 6.69021 17.7286 6.7244 18.1114 6.79277L18.3883 5.18262C17.7593 5.05955 17.185 4.99802 16.6654 4.99802C15.8586 4.99802 15.2296 5.14843 14.7783 5.44927C14.3339 5.74327 14.0228 6.12956 13.8451 6.60817C13.7151 6.9637 13.6502 7.50725 13.6502 8.23883V9.39772H12.0195V10.8335H13.6502V19.8465H2.76468Z"/>
    </symbol>
    <symbol id="icon-3" width="25" height="22" viewBox="0 0 25 22" xmlns="http://www.w3.org/2000/svg">
        <path clip-rule="evenodd" d="M0.846863 1.00366C0.846863 0.451377 1.29458 0.00366211 1.84686 0.00366211H22.9597C23.512 0.00366211 23.9597 0.451377 23.9597 1.00366V20.8465C23.9597 21.3988 23.512 21.8465 22.9597 21.8465H1.84686C1.29458 21.8465 0.846863 21.3988 0.846863 20.8465V1.00366ZM2.84686 2.00366V19.8465H21.9597V2.00366H2.84686ZM12.4827 7.55957C10.6678 7.55957 9.19659 9.03079 9.19659 10.8456C9.19659 12.6605 10.6678 14.1317 12.4827 14.1317C14.2975 14.1317 15.7687 12.6605 15.7687 10.8456C15.7687 9.03079 14.2975 7.55957 12.4827 7.55957ZM7.19659 10.8456C7.19659 7.92622 9.56324 5.55957 12.4827 5.55957C15.4021 5.55957 17.7687 7.92622 17.7687 10.8456C17.7687 13.765 15.4021 16.1317 12.4827 16.1317C9.56324 16.1317 7.19659 13.765 7.19659 10.8456ZM19.8324 4.81349C19.8324 4.92742 19.74 5.01978 19.6261 5.01978C19.5122 5.01978 19.4198 4.92742 19.4198 4.81349C19.4198 4.69956 19.5122 4.6072 19.6261 4.6072C19.74 4.6072 19.8324 4.69956 19.8324 4.81349ZM19.6261 3.01978C18.6354 3.01978 17.8324 3.82284 17.8324 4.81349C17.8324 5.80414 18.6354 6.60721 19.6261 6.60721C20.6167 6.60721 21.4198 5.80414 21.4198 4.81349C21.4198 3.82284 20.6167 3.01978 19.6261 3.01978Z" />
    </symbol>
    <symbol id="icon-4" width="25" height="22" viewBox="0 0 25 22" xmlns="http://www.w3.org/2000/svg">
        <path clip-rule="evenodd" d="M1.92908 0.00366211C1.37679 0.00366211 0.929077 0.451377 0.929077 1.00366V20.8465C0.929077 21.3988 1.37679 21.8465 1.92908 21.8465H23.0419C23.5942 21.8465 24.0419 21.3988 24.0419 20.8465V1.00366C24.0419 0.451377 23.5942 0.00366211 23.0419 0.00366211H1.92908ZM2.92908 19.8465V2.00366H22.0419V19.8465H2.92908ZM19.0844 5.71613C19.1868 5.3475 19.0699 4.95276 18.7832 4.69934C18.4966 4.44591 18.0905 4.37823 17.7372 4.52499L7.41894 8.81105C6.90891 9.02291 6.66719 9.60812 6.87905 10.1182C7.09091 10.6282 7.67612 10.8699 8.18615 10.658L16.6076 7.15991L14.342 15.316L11.1927 13.3331C11.1658 13.3162 11.1382 13.3006 11.11 13.2864L13.5843 11.6853C14.048 11.3853 14.1807 10.7662 13.8806 10.3025C13.5806 9.83881 12.9615 9.70615 12.4978 10.0062L7.10055 13.4985C6.72026 13.7446 6.55286 14.2155 6.69252 14.6464C6.83218 15.0773 7.24403 15.3605 7.69636 15.3367L10.3956 15.1946L14.4132 17.7242C14.6806 17.8926 15.0119 17.9247 15.3066 17.8107C15.6014 17.6967 15.8249 17.4501 15.9095 17.1456L19.0844 5.71613Z" />
    </symbol>
    <symbol id="icon-5" width="25" height="22" viewBox="0 0 25 22" xmlns="http://www.w3.org/2000/svg">
        <path clip-rule="evenodd" d="M1.85254 0.00366211C1.30025 0.00366211 0.852539 0.451377 0.852539 1.00366V20.8465C0.852539 21.3988 1.30025 21.8465 1.85254 21.8465H22.9654C23.5176 21.8465 23.9654 21.3988 23.9654 20.8465V1.00366C23.9654 0.451377 23.5176 0.00366211 22.9654 0.00366211H1.85254ZM2.85254 19.8465V2.00366H21.9654V19.8465H2.85254ZM10.6864 5.5857C10.3814 5.36899 9.98092 5.34067 9.64846 5.51228C9.316 5.6839 9.10715 6.02674 9.10715 6.40088V14.338C9.10715 14.699 9.30168 15.0319 9.61613 15.2092C9.93058 15.3864 10.3161 15.3804 10.6249 15.1935L16.6572 11.5424C16.9453 11.368 17.1263 11.0603 17.1387 10.7237C17.1511 10.3871 16.9932 10.0669 16.7186 9.87176L10.6864 5.5857ZM11.1071 12.5639V8.33813L14.3187 10.62L11.1071 12.5639Z"/>
    </symbol>
    <symbol id="icon-6" width="25" height="22" viewBox="0 0 25 22" xmlns="http://www.w3.org/2000/svg">
        <path clip-rule="evenodd" d="M1.2522 0.00366211C0.699912 0.00366211 0.252197 0.451377 0.252197 1.00366V20.8465C0.252197 21.3988 0.699912 21.8465 1.2522 21.8465H22.365C22.9173 21.8465 23.365 21.3988 23.365 20.8465V1.00366C23.365 0.451377 22.9173 0.00366211 22.365 0.00366211H1.2522ZM2.2522 19.8465V2.00366H21.365V19.8465H2.2522ZM9.87186 7.6709C9.87186 6.55743 10.7745 5.65479 11.888 5.65479C13.0014 5.65479 13.9041 6.55743 13.9041 7.6709C13.9041 8.78437 13.0014 9.68702 11.888 9.68702C10.7745 9.68702 9.87186 8.78437 9.87186 7.6709ZM11.888 3.65479C9.66992 3.65479 7.87186 5.45286 7.87186 7.6709C7.87186 9.88894 9.66992 11.687 11.888 11.687C14.106 11.687 15.9041 9.88894 15.9041 7.6709C15.9041 5.45286 14.106 3.65479 11.888 3.65479ZM8.0794 11.0083C8.60335 10.8337 9.16967 11.1169 9.34431 11.6408C9.38059 11.7496 9.53745 11.9797 10.0176 12.1965C10.4773 12.4041 11.123 12.5436 11.8812 12.5445C11.8857 12.5444 11.8902 12.5444 11.8947 12.5445C12.5618 12.5435 13.1654 12.4083 13.6081 12.2017C14.0733 11.9847 14.2352 11.754 14.2729 11.6408C14.4475 11.1169 15.0139 10.8337 15.5378 11.0083C16.0618 11.183 16.3449 11.7493 16.1703 12.2733C15.8905 13.1125 15.1793 13.6756 14.4539 14.0141C14.3444 14.0652 14.2316 14.1127 14.1159 14.1566L16.1952 15.9647C16.612 16.3271 16.656 16.9587 16.2936 17.3755C15.9312 17.7922 15.2996 17.8363 14.8829 17.4739L11.9055 14.8849L8.75385 17.7739C8.34673 18.1471 7.71416 18.1196 7.34097 17.7125C6.96778 17.3054 6.99528 16.6728 7.4024 16.2996L9.68238 14.2096C9.51344 14.1532 9.35045 14.0897 9.19446 14.0193C8.44438 13.6805 7.72815 13.1169 7.44695 12.2733C7.2723 11.7493 7.55546 11.183 8.0794 11.0083Z" />
    </symbol>
</svg>