<svg width="24" height="22" viewBox="0 0 24 22" fill="none" xmlns="http://www.w3.org/2000/svg">
<path fill-rule="evenodd" clip-rule="evenodd" d="M1.76468 0.00366211C1.21239 0.00366211 0.764679 0.451377 0.764679 1.00366V20.8465C0.764679 21.3988 1.21239 21.8465 1.76468 21.8465H22.8775C23.4298 21.8465 23.8775 21.3988 23.8775 20.8465V1.00366C23.8775 0.451377 23.4298 0.00366211 22.8775 0.00366211H1.76468ZM2.76468 19.8465V2.00366H21.8775V19.8465H15.486V10.8335H17.6089V9.39772H15.486V8.39266C15.486 7.7363 15.6022 7.28846 15.8347 7.04916C16.0671 6.80986 16.4637 6.69021 17.0243 6.69021C17.3662 6.69021 17.7286 6.7244 18.1114 6.79277L18.3883 5.18262C17.7593 5.05955 17.185 4.99802 16.6654 4.99802C15.8586 4.99802 15.2296 5.14843 14.7783 5.44927C14.3339 5.74327 14.0228 6.12956 13.8451 6.60817C13.7151 6.9637 13.6502 7.50725 13.6502 8.23883V9.39772H12.0195V10.8335H13.6502V19.8465H2.76468Z" fill="#EF7F1A"/>
</svg>
