<svg width="25" height="22" viewBox="0 0 25 22" fill="none" xmlns="http://www.w3.org/2000/svg">
<path fill-rule="evenodd" clip-rule="evenodd" d="M1.92908 0.00366211C1.37679 0.00366211 0.929077 0.451377 0.929077 1.00366V20.8465C0.929077 21.3988 1.37679 21.8465 1.92908 21.8465H23.0419C23.5942 21.8465 24.0419 21.3988 24.0419 20.8465V1.00366C24.0419 0.451377 23.5942 0.00366211 23.0419 0.00366211H1.92908ZM2.92908 19.8465V2.00366H22.0419V19.8465H2.92908ZM19.0844 5.71613C19.1868 5.3475 19.0699 4.95276 18.7832 4.69934C18.4966 4.44591 18.0905 4.37823 17.7372 4.52499L7.41894 8.81105C6.90891 9.02291 6.66719 9.60812 6.87905 10.1182C7.09091 10.6282 7.67612 10.8699 8.18615 10.658L16.6076 7.15991L14.342 15.316L11.1927 13.3331C11.1658 13.3162 11.1382 13.3006 11.11 13.2864L13.5843 11.6853C14.048 11.3853 14.1807 10.7662 13.8806 10.3025C13.5806 9.83881 12.9615 9.70615 12.4978 10.0062L7.10055 13.4985C6.72026 13.7446 6.55286 14.2155 6.69252 14.6464C6.83218 15.0773 7.24403 15.3605 7.69636 15.3367L10.3956 15.1946L14.4132 17.7242C14.6806 17.8926 15.0119 17.9247 15.3066 17.8107C15.6014 17.6967 15.8249 17.4501 15.9095 17.1456L19.0844 5.71613Z" fill="#EF7F1A"/>
</svg>
