<svg width="23" height="22" viewBox="0 0 23 22" fill="none" xmlns="http://www.w3.org/2000/svg">
    <path fill-rule="evenodd" clip-rule="evenodd" d="M0.634949 0.00366211C0.082664 0.00366211 -0.365051 0.451377 -0.365051 1.00366V20.8465C-0.365051 21.3988 0.082664 21.8465 0.634949 21.8465H21.7478C22.3 21.8465 22.7478 21.3988 22.7478 20.8465V1.00366C22.7478 0.451377 22.3 0.00366211 21.7478 0.00366211H0.634949ZM1.63495 19.8465V2.00366H20.7478V19.8465H1.63495ZM7.59731 5.50055V14.5911H11.0636C11.6424 14.5911 12.1302 14.5415 12.527 14.4422C12.928 14.3389 13.2608 14.188 13.5254 13.9896C13.7899 13.7911 14.0111 13.51 14.1889 13.1463C14.3708 12.7783 14.4617 12.3815 14.4617 11.9557C14.4617 11.4265 14.3129 10.9677 14.0152 10.5791C13.7217 10.1905 13.3001 9.91559 12.7503 9.75436C13.1761 9.54353 13.4944 9.26656 13.7052 8.92344C13.916 8.58033 14.0214 8.21448 14.0214 7.82589C14.0214 7.40836 13.9016 7.00943 13.6618 6.62911C13.4262 6.24466 13.0975 5.96148 12.6758 5.77959C12.2583 5.59356 11.7023 5.50055 11.0078 5.50055H7.59731ZM10.766 9.3203H8.80028V6.57331H10.6171C11.2703 6.57331 11.7312 6.61671 11.9999 6.70352C12.2687 6.7862 12.4753 6.94329 12.62 7.17479C12.7647 7.40216 12.8371 7.66673 12.8371 7.96851C12.8371 8.28682 12.7585 8.55139 12.6014 8.76222C12.4485 8.97305 12.219 9.12394 11.9131 9.21489C11.6816 9.28516 11.2992 9.3203 10.766 9.3203ZM11.0636 13.5183H8.80028V10.3931H10.9024C11.4811 10.3931 11.9235 10.4447 12.2294 10.5481C12.5394 10.6473 12.7813 10.823 12.9549 11.0752C13.1285 11.3232 13.2153 11.6167 13.2153 11.9557C13.2153 12.2451 13.1554 12.5014 13.0355 12.7246C12.9156 12.9437 12.7627 13.1111 12.5766 13.2269C12.3906 13.3426 12.1591 13.4253 11.8821 13.4749C11.725 13.5038 11.4522 13.5183 11.0636 13.5183Z" fill="#EF7F1A"/>
</svg>
